HIERARCHY
ROOT RootJoint
{
    OFFSET   0.000000   0.000000   0.000000
    CHANNELS 6 Xposition Yposition Zposition Xrotation Yrotation Zrotation
    JOINT lHip
    {
        OFFSET   0.100000  -0.051395   0.000000
        CHANNELS 3 Xrotation Yrotation Zrotation
        JOINT lKnee
        {
            OFFSET   0.000000  -0.410000   0.000000
            CHANNELS 3 Xrotation Yrotation Zrotation
            JOINT lAnkle
            {
                OFFSET   0.000000  -0.390000   0.000000
                CHANNELS 3 Xrotation Yrotation Zrotation
                JOINT lToeJoint
                {
                    OFFSET   0.000000  -0.050000   0.130000
                    CHANNELS 3 Xrotation Yrotation Zrotation
                    End Site
                    {
                        OFFSET   0.010000   0.002000   0.060000
                    }
                }
            }
        }
    }
    JOINT rHip
    {
        OFFSET  -0.100000  -0.051395   0.000000
        CHANNELS 3 Xrotation Yrotation Zrotation
        JOINT rKnee
        {
            OFFSET   0.000000  -0.410000   0.000000
            CHANNELS 3 Xrotation Yrotation Zrotation
            JOINT rAnkle
            {
                OFFSET   0.000000  -0.390000   0.000000
                CHANNELS 3 Xrotation Yrotation Zrotation
                JOINT rToeJoint
                {
                    OFFSET   0.000000  -0.050000   0.130000
                    CHANNELS 3 Xrotation Yrotation Zrotation
                    End Site
                    {
                        OFFSET  -0.010000   0.002000   0.060000
                    }
                }
            }
        }
    }
    JOINT pelvis_lowerback
    {
        OFFSET   0.000000   0.093605   0.000000
        CHANNELS 3 Xrotation Yrotation Zrotation
        JOINT lowerback_torso
        {
            OFFSET   0.000000   0.100000   0.000000
            CHANNELS 3 Xrotation Yrotation Zrotation
            JOINT torso_head
            {
                OFFSET   0.000000   0.282350   0.000000
                CHANNELS 3 Xrotation Yrotation Zrotation
                End Site
                {
                    OFFSET   0.000000   0.192650   0.000000
                }
            }
            JOINT lTorso_Clavicle
            {
                OFFSET   0.001000   0.157500   0.000000
                CHANNELS 3 Xrotation Yrotation Zrotation
                JOINT lShoulder
                {
                    OFFSET   0.117647   0.000000   0.000000
                    CHANNELS 3 Xrotation Yrotation Zrotation
                    JOINT lElbow
                    {
                        OFFSET   0.245000   0.000000   0.000000
                        CHANNELS 3 Xrotation Yrotation Zrotation
                        JOINT lWrist
                        {
                            OFFSET   0.240000   0.000000   0.000000
                            CHANNELS 3 Xrotation Yrotation Zrotation
                            End Site
                            {
                                OFFSET   0.116353  -0.002500   0.000000
                            }
                        }
                    }
                }
            }
            JOINT rTorso_Clavicle
            {
                OFFSET  -0.001000   0.157500   0.000000
                CHANNELS 3 Xrotation Yrotation Zrotation
                JOINT rShoulder
                {
                    OFFSET  -0.117647   0.000000   0.000000
                    CHANNELS 3 Xrotation Yrotation Zrotation
                    JOINT rElbow
                    {
                        OFFSET  -0.245000   0.000000   0.000000
                        CHANNELS 3 Xrotation Yrotation Zrotation
                        JOINT rWrist
                        {
                            OFFSET  -0.240000   0.000000   0.000000
                            CHANNELS 3 Xrotation Yrotation Zrotation
                            End Site
                            {
                                OFFSET  -0.116353  -0.002500   0.000000
                            }
                        }
                    }
                }
            }
        }
    }
}
MOTION
Frames: 17
Frame Time:   0.010000
 -0.257078   0.903380  -0.035934 100.791600 -78.646500 103.588900 -33.865400  -6.181000  -5.101400  34.075300   0.000000   0.000000  -1.851200  24.623600  -7.688300  14.873900   0.000000   0.000000  -1.816500   7.125100   2.293300   1.057100   0.000000   0.000000  -8.132300  -5.288900  20.238900  19.525100   0.000000   0.000000  -8.080500   3.360100  -9.378400   8.143600  -5.651500   7.216700 -35.409425   3.012009  -2.321349   4.690900  23.364300  12.200200 -75.244100 -19.380700 -30.248400  -0.001400 -81.395400  -0.001200 -18.599900 -10.751200   7.738800  12.608800 -22.487100  -4.916500 -61.654300 -20.918200  35.323800 -179.993100  88.251800 179.992900 -40.494800   8.472600 -43.720900
 -0.265446   0.902425  -0.035655 102.304702 -78.487650 105.241281 -33.769407  -5.460197  -5.215952  30.929540   0.000000   0.000000  -0.631112  22.671286  -9.100252  11.948780   0.000000   0.000000  -1.585402   7.225624   2.123503   1.565860   0.000000   0.000000  -8.713496  -5.044860  20.365160  19.871420   0.000000   0.000000  -8.207399   3.474738  -9.206524   7.948845  -5.575583   7.378411 -35.024767   3.701825  -2.145968   4.745358  23.662341  12.222172 -75.628414 -18.923244 -31.021141  -0.001767 -83.153540  -0.001567 -26.702876 -12.595028   2.714491  12.542224 -22.178439  -4.911517 -62.436493 -20.364103  37.037059 -179.997481  85.264660 179.997281 -49.841659  11.000163 -38.231610
 -0.274011   0.901352  -0.035444 103.463947 -78.370068 106.502766 -33.554414  -4.641674  -5.321410  27.686140   0.000000   0.000000   0.818551  20.746676 -10.359308  10.987940   0.000000   0.000000  -1.286524   7.240536   1.993431   2.013620   0.000000   0.000000  -9.327490  -4.738163  20.810317  21.353340   0.000000   0.000000  -8.362633   3.636346  -9.089821   7.883509  -5.441832   7.597420 -34.581944   4.277695  -1.946412   4.756783  23.913101  12.140217 -76.033318 -18.664127 -32.104713  -0.002303 -84.772260  -0.002103 -34.400188 -14.387223  -3.201676  12.523716 -21.787836  -4.770797 -63.205146 -19.447844  38.756299 -179.998433  82.412940 179.998193 -57.701944  13.450174 -31.554479
 -0.282735   0.900111  -0.035392 104.197109 -78.295072 107.288308 -33.247232  -3.909290  -5.403853  24.417160   0.000000   0.000000   2.495267  19.001827 -11.981070  10.150520   0.000000   0.000000  -0.937968   7.206143   1.932287   2.438180   0.000000   0.000000  -9.940067  -4.558011  21.226007  22.099800   0.000000   0.000000  -8.529552   3.812322  -8.991307   7.840676  -5.288699   7.839090 -34.104064   4.806212  -1.716432   4.712739  24.146381  12.094862 -76.473706 -18.445835 -33.625023  -0.003270 -86.328960  -0.003070 -41.521280 -15.559176  -9.489991  12.442283 -21.316756  -4.659462 -63.864708 -18.200246  40.633664 -179.998832  79.786860 179.998592 -64.489083  15.837941 -24.507179
 -0.291490   0.898750  -0.035446 104.443514 -78.221124 107.554114 -32.933932  -3.202794  -5.497160  21.194360   0.000000   0.000000   4.025318  17.501077 -13.299967   9.622200   0.000000   0.000000  -0.602737   7.094035   1.929984   2.853140   0.000000   0.000000 -10.494307  -4.581758  21.375353  21.916160   0.000000   0.000000  -8.698647   4.006589  -8.924973   7.843246  -5.098411   8.140353 -33.546795   5.206404  -1.581992   4.649546  24.310975  12.014901 -76.924916 -18.385413 -35.504328  -0.005380 -87.749800  -0.005180 -48.929806 -16.926678 -15.642289  12.417742 -20.833184  -4.479094 -64.593824 -16.462571  42.636620 -179.999065  77.412660 179.998865 -69.847728  17.975910 -18.220232
 -0.300417   0.897279  -0.035504 104.514700 -78.159200 107.639800 -32.569200  -2.460900  -5.614100  18.016100   0.000000   0.000000   5.206700  16.161900 -14.064600   9.264600   0.000000   0.000000  -0.233100   6.869600   1.937000   3.250300   0.000000   0.000000 -11.037900  -4.541800  21.730500  22.020800   0.000000   0.000000  -8.851500   4.219100  -8.872800   7.909500  -4.864400   8.521800 -32.962792   5.541273  -1.480772   4.678300  24.314800  11.793700 -77.368500 -18.560700 -37.555000  -0.012800 -89.059500  -0.012600 -56.884600 -18.633700 -21.231900  12.320400 -20.200700  -4.422300 -65.319500 -14.549300  44.606600 -179.999200  75.132100 179.999000 -74.230600  19.746100 -12.896000
 -0.309314   0.895721  -0.035586 104.286240 -78.036419 107.394320 -32.260109  -1.825537  -5.733796  14.944920   0.000000   0.000000   5.953387  15.128058 -14.272882   9.148580   0.000000   0.000000   0.043736   6.438130   1.979049   3.679800   0.000000   0.000000 -11.623253  -4.375812  22.360587  22.543600   0.000000   0.000000  -8.986155   4.437882  -8.847227   8.052613  -4.598423   8.968405 -32.343375   5.839944  -1.531600   4.796428  24.226790  11.434159 -77.800600 -19.010365 -39.849932 -179.890293 -89.890039 -179.890093 -65.388516 -20.956862 -26.681878  12.109217 -19.331626  -4.605533 -66.026147 -12.595458  46.621494 -179.999321  72.898340 179.999101 -77.030913  20.537330  -9.061836
 -0.318343   0.894167  -0.035708 103.940008 -77.910588 107.048048 -31.883241  -1.063406  -5.867979  11.923240   0.000000   0.000000   6.459091  14.272047 -14.249245   9.033500   0.000000   0.000000   0.329342   5.914508   1.998320   4.100640   0.000000   0.000000 -12.151959  -4.129290  23.037286  22.971080   0.000000   0.000000  -9.109377   4.655368  -8.819637   8.245138  -4.330113   9.413612 -31.852404   6.221711  -1.529365   4.976597  24.004789  11.050407 -78.200484 -19.508039 -42.252460 -179.988413 -88.955600 -179.988213 -74.113914 -22.807057 -32.450115  11.719473 -18.229844  -5.053989 -66.606495 -10.688827  48.760299 -179.999401  70.677980 179.999141 -79.251006  20.828267  -6.490080
 -0.327666   0.892589  -0.035678 103.802749 -77.794662 106.934308 -31.455798  -0.484678  -6.041248   9.051040   0.000000   0.000000   6.766194  13.873617 -14.309487   9.011540   0.000000   0.000000   0.638138   5.305885   1.961804   4.565400   0.000000   0.000000 -12.676975  -3.756927  23.905509  23.447120   0.000000   0.000000  -9.217982   4.917926  -8.775190   8.454793  -4.040788   9.744087 -31.336424   6.426898  -1.641607   5.128726  23.704856  10.692269 -78.742963 -19.963505 -44.952218 -179.993587 -88.111280 -179.993387 -82.297740 -23.657722 -37.903762  11.419734 -16.998037  -5.514159 -67.257340  -8.642874  50.904709 -179.999461  68.549480 179.999201 -81.927980  21.361397  -4.452638
 -0.337206   0.891028  -0.035603 103.839403 -77.684783 107.008043 -30.989669  -0.133312  -6.230575   6.342160   0.000000   0.000000   6.974918  13.905997 -14.407327   9.181660   0.000000   0.000000   0.935365   4.669282   1.890037   5.114640   0.000000   0.000000 -13.192212  -3.320008  24.872380  23.925240   0.000000   0.000000  -9.340988   5.191004  -8.741134   8.748060  -3.743237  10.073375 -30.840354   6.567631  -1.845538   5.266624  23.231348  10.288794 -79.377456 -20.268445 -47.661509 -179.995580 -87.251720 -179.995380 -88.622049 -23.446246 -42.093681  11.093113 -15.695913  -6.125143 -67.992878  -6.548995  53.273294 -179.999501  66.606680 179.999281 -83.971946  22.078345  -3.443273
 -0.346979   0.889506  -0.035559 104.035400 -77.578000 107.253700 -30.513400  -0.139100  -6.410100   3.843800   0.000000   0.000000   7.022200  14.370000 -14.176000   9.443600   0.000000   0.000000   1.206700   4.023100   1.788900   5.768100   0.000000   0.000000 -13.725200  -2.863700  25.954400  24.616900   0.000000   0.000000  -9.384100   5.433800  -8.675100   8.975600  -3.491000  10.254500 -30.544245   6.727141  -1.963928   5.380100  22.587700   9.973500 -80.026000 -20.284700 -50.305800 -179.996800 -86.286200 -179.996500 -92.562100 -22.557800 -44.771700  10.597000 -14.212800  -6.882600 -68.635800  -4.569800  55.758400 -179.999600  64.823200 179.999300 -85.485400  22.799400  -3.022000
 -0.356939   0.888011  -0.035701 104.301002 -77.484681 107.574123 -30.056269  -0.639322  -6.545914   1.674480   0.000000   0.000000   6.940428  15.166791 -13.686210   9.646740   0.000000   0.000000   1.417745   3.408100   1.689853   6.597880   0.000000   0.000000 -14.242207  -2.406470  26.785199  25.033740   0.000000   0.000000  -9.421842   5.666180  -8.628003   9.267299  -3.252256  10.399906 -30.375942   6.744590  -2.079748   5.461010  21.941622   9.649173 -80.784910 -20.168120 -53.071349 -179.997391 -85.403180 -179.997191 -93.988812 -22.149352 -45.818701  10.379346 -12.779657  -7.589148 -69.830179  -2.525633  58.487751 -179.999600  63.559380 179.999300 -87.325771  23.535290  -2.166192
 -0.366805   0.886560  -0.036129 104.723242 -77.301665 107.956762 -29.756717  -1.430934  -6.504056  -0.012600   0.000000   0.000000   6.712130  16.040361 -13.287932   9.823860   0.000000   0.000000   1.445691   2.855421   1.700189   7.601160   0.000000   0.000000 -14.615961  -1.863197  27.586936  25.096420   0.000000   0.000000  -9.421887   5.884539  -8.558319   9.500127  -3.063316  10.364593 -30.263195   6.703356  -2.171093   5.564866  21.222632   9.409992 -81.589930 -19.766194 -55.925267 -179.997828 -84.505420 -179.997588 -94.232654 -21.978351 -46.029650  10.080938 -11.316461  -8.251184 -71.003707  -0.364770  61.294833 -179.999600  62.641100 179.999300 -88.275984  24.196823  -1.426778
 -0.377117   0.885312  -0.036630 105.781050 -77.184013 108.982231 -29.381023  -2.221337  -6.385636  -1.096440   0.000000   0.000000   6.327540  16.892714 -12.788093   9.836160   0.000000   0.000000   1.528016   2.479763   1.680118   8.735760   0.000000   0.000000 -14.849648  -1.377876  28.477249  25.077460   0.000000   0.000000  -9.351742   6.070345  -8.494327   9.721109  -2.891304  10.303336 -30.258677   6.615750  -2.329586   5.637600  20.481447   9.112396 -82.360875 -19.377504 -58.772622 -179.998125 -83.702020 -179.997825 -94.949429 -22.257411 -46.364849   9.558682  -9.756781  -9.040819 -71.967858   1.770732  64.139685 -179.999600  61.997240 179.999300 -90.152438  25.502592   0.020004
 -0.387493   0.884082  -0.037190 106.269904 -77.081548 109.443925 -29.132842  -3.003032  -6.294168  -1.418320   0.000000   0.000000   5.756151  17.581541 -11.899967   9.836920   0.000000   0.000000   1.515123   2.009839   1.666976  10.046400   0.000000   0.000000 -15.059613  -0.934042  29.218098  25.026620   0.000000   0.000000  -9.226316   6.231075  -8.440343   9.868139  -2.743700  10.168093 -30.308354   6.484953  -2.541765   5.702970  19.733597   8.826719 -83.049092 -18.971839 -61.590334 -179.998282 -82.985060 -179.998062 -96.541955 -22.667499 -47.115605   9.173709  -8.201437  -9.667217 -73.240795   3.793133  66.943282 -179.999600  61.488440 179.999300 -92.019852  26.042603   0.764092
 -0.398417   0.882967  -0.037709 107.599100 -77.133000 110.766100 -28.635200  -3.142900  -6.178500  -1.081200   0.000000   0.000000   5.173200  17.709600 -10.625900   9.621600   0.000000   0.000000   1.663700   1.640900   1.581300  11.505200   0.000000   0.000000 -15.314900  -0.541600  30.190000  25.506700   0.000000   0.000000  -9.050900   6.395500  -8.364300   9.944600  -2.615200   9.906200 -30.458492   6.237840  -2.761621   5.689400  19.004500   8.562000 -83.690300 -18.691700 -64.414500 -179.998400 -82.469900 -179.998200 -98.803700 -23.003600 -48.291500   8.936800  -6.789700 -10.167900 -74.718900   5.832100  69.791500 -179.999600  61.128200 179.999400 -93.034500  26.572100   0.597900
 -0.410278   0.881895  -0.037958 108.582069 -77.364009 111.847430 -28.035226  -3.648235  -6.225793  -0.103160   0.000000   0.000000   4.791554  18.153723  -9.712694   9.712460   0.000000   0.000000   2.026226   1.005217   1.349190  12.942100   0.000000   0.000000 -15.339073   0.027254  31.225684  25.658940   0.000000   0.000000  -8.890396   6.507177  -8.301951  10.145286  -2.517885   9.751748 -30.634583   6.045807  -2.966307   5.692441  18.246318   8.199620 -84.223246 -18.507348 -67.014274 -179.998420 -82.269620 -179.998200 -101.027681 -22.991732 -49.745978   8.684126  -5.223887 -10.878948 -76.144327   7.560438  72.583852 -179.999600  60.891400 179.999400 -94.064250  27.236988   0.137893
